G75*
%MOIN*%
%OFA0B0*%
%FSLAX25Y25*%
%IPPOS*%
%LPD*%
%AMOC8*
5,1,8,0,0,1.08239X$1,22.5*
%
%ADD10C,0.00000*%
%ADD11OC8,0.05200*%
%ADD12C,0.05200*%
%ADD13C,0.05150*%
%ADD14C,0.11220*%
%ADD15C,0.07400*%
%ADD16C,0.05200*%
%ADD17C,0.05937*%
%ADD18C,0.01600*%
%ADD19C,0.03562*%
D10*
X0005060Y0001800D02*
X0005060Y0198650D01*
X0201910Y0198650D01*
X0201910Y0001800D01*
X0005060Y0001800D01*
D11*
X0035060Y0016800D03*
X0035060Y0046800D03*
X0020060Y0046800D03*
X0010060Y0046800D03*
X0066310Y0021800D03*
X0066310Y0011800D03*
X0130060Y0091800D03*
X0140060Y0091800D03*
X0150060Y0061800D03*
X0150060Y0036800D03*
X0150060Y0026800D03*
X0180060Y0026800D03*
X0180060Y0036800D03*
X0135060Y0131800D03*
X0135060Y0141800D03*
X0155060Y0166800D03*
X0155060Y0176800D03*
X0166310Y0171800D03*
X0167560Y0188050D03*
X0177560Y0188050D03*
X0196310Y0171800D03*
X0133810Y0170550D03*
X0115060Y0181800D03*
X0110060Y0174300D03*
X0105060Y0181800D03*
X0072560Y0176800D03*
X0072560Y0166800D03*
D12*
X0133810Y0190550D03*
X0130060Y0061800D03*
D13*
X0038889Y0170501D03*
X0034164Y0173650D03*
X0038889Y0176800D03*
X0034164Y0179950D03*
X0038889Y0183099D03*
X0057186Y0191800D03*
X0065060Y0191800D03*
X0072934Y0191800D03*
D14*
X0018810Y0191170D03*
X0018810Y0162430D03*
D15*
X0010060Y0136800D03*
X0010060Y0126800D03*
X0010060Y0116800D03*
X0010060Y0106800D03*
X0010060Y0096800D03*
X0010060Y0086800D03*
X0010060Y0076800D03*
X0010060Y0066800D03*
X0066310Y0065550D03*
X0066310Y0055550D03*
X0066310Y0045550D03*
X0130060Y0011800D03*
X0150060Y0011800D03*
X0165060Y0011800D03*
X0185060Y0011800D03*
X0197560Y0006800D03*
X0197560Y0016800D03*
X0197560Y0026800D03*
X0197560Y0036800D03*
X0197560Y0046800D03*
X0197560Y0066800D03*
X0197560Y0076800D03*
X0197560Y0086800D03*
X0197560Y0096800D03*
X0197560Y0106800D03*
X0197560Y0116800D03*
X0197560Y0126800D03*
X0197560Y0136800D03*
D16*
X0117660Y0131800D02*
X0112460Y0131800D01*
X0112460Y0121800D02*
X0117660Y0121800D01*
X0117660Y0111800D02*
X0112460Y0111800D01*
X0112460Y0101800D02*
X0117660Y0101800D01*
X0117660Y0091800D02*
X0112460Y0091800D01*
X0112460Y0081800D02*
X0117660Y0081800D01*
X0117660Y0071800D02*
X0112460Y0071800D01*
X0112460Y0061800D02*
X0117660Y0061800D01*
X0117660Y0051800D02*
X0112460Y0051800D01*
X0112460Y0041800D02*
X0117660Y0041800D01*
X0117660Y0031800D02*
X0112460Y0031800D01*
X0112460Y0021800D02*
X0117660Y0021800D01*
X0117660Y0011800D02*
X0112460Y0011800D01*
X0087660Y0011800D02*
X0082460Y0011800D01*
X0082460Y0021800D02*
X0087660Y0021800D01*
X0087660Y0031800D02*
X0082460Y0031800D01*
X0082460Y0041800D02*
X0087660Y0041800D01*
X0087660Y0051800D02*
X0082460Y0051800D01*
X0082460Y0061800D02*
X0087660Y0061800D01*
X0087660Y0071800D02*
X0082460Y0071800D01*
X0082460Y0081800D02*
X0087660Y0081800D01*
X0087660Y0091800D02*
X0082460Y0091800D01*
X0082460Y0101800D02*
X0087660Y0101800D01*
X0087660Y0111800D02*
X0082460Y0111800D01*
X0082460Y0121800D02*
X0087660Y0121800D01*
X0087660Y0131800D02*
X0082460Y0131800D01*
X0082460Y0141800D02*
X0087660Y0141800D01*
X0112460Y0141800D02*
X0117660Y0141800D01*
D17*
X0080808Y0191800D03*
X0049312Y0191800D03*
D18*
X0042590Y0186800D02*
X0060060Y0186800D01*
X0065060Y0191800D01*
X0072934Y0191800D02*
X0072934Y0177174D01*
X0072560Y0176800D01*
X0065060Y0176800D02*
X0065060Y0076800D01*
X0055060Y0086800D02*
X0045060Y0096800D01*
X0055060Y0086800D02*
X0055060Y0036800D01*
X0060060Y0049300D02*
X0066310Y0055550D01*
X0060060Y0049300D02*
X0060060Y0016800D01*
X0065060Y0011800D01*
X0066310Y0011800D01*
X0075060Y0011800D02*
X0075060Y0016800D01*
X0080060Y0016800D01*
X0085060Y0021800D01*
X0085060Y0011800D02*
X0090060Y0011800D01*
X0095060Y0016800D01*
X0095060Y0146800D01*
X0076310Y0140550D02*
X0075060Y0141800D01*
X0076310Y0140550D02*
X0076310Y0098050D01*
X0100060Y0101800D02*
X0100060Y0016800D01*
X0115060Y0011800D02*
X0130060Y0026800D01*
X0130060Y0051800D01*
X0140060Y0061800D01*
X0140060Y0076800D01*
X0150060Y0071800D02*
X0150060Y0096800D01*
X0135060Y0111800D01*
X0125060Y0111800D01*
X0125060Y0126800D01*
X0130060Y0131800D02*
X0135060Y0131800D01*
X0140060Y0131800D01*
X0155060Y0146800D01*
X0155060Y0166800D01*
X0165060Y0178050D01*
X0165060Y0181800D01*
X0167560Y0188050D01*
X0136310Y0188050D01*
X0133810Y0190550D01*
X0113810Y0190550D01*
X0105060Y0181800D01*
X0115060Y0141800D02*
X0120060Y0141800D01*
X0130060Y0131800D01*
X0105060Y0111800D02*
X0105060Y0036800D01*
X0125060Y0041800D02*
X0125060Y0096800D01*
X0125060Y0099300D01*
X0130060Y0091800D02*
X0130060Y0081800D01*
X0160060Y0096800D02*
X0160060Y0061800D01*
X0150060Y0051800D01*
X0140060Y0051800D01*
X0135060Y0046800D01*
X0135060Y0031800D01*
X0140060Y0026800D02*
X0140060Y0041800D01*
X0145060Y0046800D01*
X0155060Y0046800D01*
X0165060Y0056800D01*
X0165060Y0086800D01*
X0175060Y0071800D02*
X0175060Y0046800D01*
X0165060Y0036800D01*
X0165060Y0011800D01*
X0150060Y0016800D02*
X0160060Y0026800D01*
X0150060Y0026800D02*
X0150060Y0036800D01*
X0150060Y0026800D02*
X0145124Y0026800D01*
X0141543Y0023219D01*
X0141479Y0023219D01*
X0140060Y0021800D01*
X0130060Y0021800D01*
X0121830Y0013570D01*
X0121860Y0013540D01*
X0121860Y0008600D01*
X0120060Y0006800D01*
X0080060Y0006800D01*
X0075060Y0011800D01*
X0050060Y0021800D02*
X0050060Y0076800D01*
X0020060Y0081800D02*
X0020060Y0061800D01*
X0010060Y0051800D01*
X0010060Y0046800D01*
X0020060Y0081800D02*
X0015060Y0086800D01*
X0010060Y0086800D01*
X0030060Y0141800D02*
X0030060Y0171851D01*
X0029990Y0171921D01*
X0029990Y0175775D01*
X0034164Y0179950D01*
X0038889Y0183099D02*
X0042590Y0186800D01*
X0177560Y0188050D02*
X0177560Y0179300D01*
X0185060Y0171800D01*
X0196310Y0171800D01*
X0185060Y0156800D02*
X0185060Y0081800D01*
X0185060Y0041800D01*
X0190060Y0036800D01*
X0185060Y0031800D02*
X0175060Y0031800D01*
X0180060Y0026800D02*
X0185060Y0021800D01*
X0185060Y0011800D01*
X0150060Y0011800D02*
X0150060Y0016800D01*
X0180060Y0076800D02*
X0180060Y0146800D01*
D19*
X0180060Y0146800D03*
X0185060Y0156800D03*
X0160060Y0096800D03*
X0165060Y0086800D03*
X0175060Y0071800D03*
X0180060Y0076800D03*
X0185060Y0081800D03*
X0175060Y0046800D03*
X0175060Y0031800D03*
X0185060Y0031800D03*
X0190060Y0036800D03*
X0160060Y0026800D03*
X0140060Y0026800D03*
X0135060Y0031800D03*
X0125060Y0041800D03*
X0105060Y0036800D03*
X0100060Y0016800D03*
X0055060Y0036800D03*
X0050060Y0021800D03*
X0050060Y0076800D03*
X0065060Y0076800D03*
X0076310Y0098050D03*
X0100060Y0101800D03*
X0105060Y0111800D03*
X0125060Y0099300D03*
X0130060Y0081800D03*
X0140060Y0076800D03*
X0150060Y0071800D03*
X0125060Y0126800D03*
X0095060Y0146800D03*
X0075060Y0141800D03*
X0065060Y0176800D03*
X0030060Y0141800D03*
X0045060Y0096800D03*
M02*
