%
M48
M72
T01C0.02362
T02C0.03150
T03C0.03200
T04C0.03937
T05C0.04000
T06C0.07480
%
T01
X50060Y21800
X55060Y36800
X50060Y76800
X65060Y76800
X76310Y98050
X100060Y101800
X105060Y111800
X125060Y99300
X130060Y81800
X140060Y76800
X150060Y71800
X165060Y86800
X160060Y96800
X180060Y76800
X185060Y81800
X175060Y71800
X175060Y46800
X175060Y31800
X185060Y31800
X190060Y36800
X160060Y26800
X140060Y26800
X135060Y31800
X125060Y41800
X105060Y36800
X100060Y16800
X45060Y96800
X30060Y141800
X65060Y176800
X95060Y146800
X75060Y141800
X125060Y126800
X180060Y146800
X185060Y156800
T02
X34164Y179950
X38889Y183099
X38889Y176800
X34164Y173650
X38889Y170501
X57186Y191800
X65060Y191800
X72934Y191800
T03
X72560Y176800
X72560Y166800
X85060Y141800
X85060Y131800
X85060Y121800
X85060Y111800
X85060Y101800
X85060Y91800
X85060Y81800
X85060Y71800
X85060Y61800
X85060Y51800
X85060Y41800
X85060Y31800
X85060Y21800
X85060Y11800
X66310Y11800
X66310Y21800
X35060Y16800
X35060Y46800
X20060Y46800
X10060Y46800
X115060Y41800
X115060Y31800
X115060Y21800
X115060Y11800
X150060Y26800
X150060Y36800
X150060Y61800
X130060Y61800
X115060Y61800
X115060Y51800
X115060Y71800
X115060Y81800
X115060Y91800
X115060Y101800
X115060Y111800
X115060Y121800
X115060Y131800
X115060Y141800
X135060Y141800
X135060Y131800
X155060Y166800
X155060Y176800
X166310Y171800
X167560Y188050
X177560Y188050
X196310Y171800
X133810Y170550
X133810Y190550
X115060Y181800
X110060Y174300
X105060Y181800
X130060Y91800
X140060Y91800
X180060Y36800
X180060Y26800
T04
X49312Y191800
X80808Y191800
T05
X10060Y136800
X10060Y126800
X10060Y116800
X10060Y106800
X10060Y96800
X10060Y86800
X10060Y76800
X10060Y66800
X66310Y65550
X66310Y55550
X66310Y45550
X130060Y11800
X150060Y11800
X165060Y11800
X185060Y11800
X197560Y6800
X197560Y16800
X197560Y26800
X197560Y36800
X197560Y46800
X197560Y66800
X197560Y76800
X197560Y86800
X197560Y96800
X197560Y106800
X197560Y116800
X197560Y126800
X197560Y136800
T06
X18810Y191170
X18810Y162430
M30
