G75*
%MOIN*%
%OFA0B0*%
%FSLAX25Y25*%
%IPPOS*%
%LPD*%
%AMOC8*
5,1,8,0,0,1.08239X$1,22.5*
%
%ADD10C,0.00000*%
%ADD11C,0.00600*%
%ADD12C,0.01000*%
%ADD13C,0.00500*%
D10*
X0005060Y0001800D02*
X0005060Y0198650D01*
X0201910Y0198650D01*
X0201910Y0001800D01*
X0005060Y0001800D01*
D11*
X0151060Y0162300D02*
X0159060Y0162300D01*
X0159120Y0162302D01*
X0159181Y0162307D01*
X0159240Y0162316D01*
X0159299Y0162329D01*
X0159358Y0162345D01*
X0159415Y0162365D01*
X0159470Y0162388D01*
X0159525Y0162415D01*
X0159577Y0162444D01*
X0159628Y0162477D01*
X0159677Y0162513D01*
X0159723Y0162551D01*
X0159767Y0162593D01*
X0159809Y0162637D01*
X0159847Y0162683D01*
X0159883Y0162732D01*
X0159916Y0162783D01*
X0159945Y0162835D01*
X0159972Y0162890D01*
X0159995Y0162945D01*
X0160015Y0163002D01*
X0160031Y0163061D01*
X0160044Y0163120D01*
X0160053Y0163179D01*
X0160058Y0163240D01*
X0160060Y0163300D01*
X0160060Y0180300D01*
X0160058Y0180360D01*
X0160053Y0180421D01*
X0160044Y0180480D01*
X0160031Y0180539D01*
X0160015Y0180598D01*
X0159995Y0180655D01*
X0159972Y0180710D01*
X0159945Y0180765D01*
X0159916Y0180817D01*
X0159883Y0180868D01*
X0159847Y0180917D01*
X0159809Y0180963D01*
X0159767Y0181007D01*
X0159723Y0181049D01*
X0159677Y0181087D01*
X0159628Y0181123D01*
X0159577Y0181156D01*
X0159525Y0181185D01*
X0159470Y0181212D01*
X0159415Y0181235D01*
X0159358Y0181255D01*
X0159299Y0181271D01*
X0159240Y0181284D01*
X0159181Y0181293D01*
X0159120Y0181298D01*
X0159060Y0181300D01*
X0151060Y0181300D01*
X0151000Y0181298D01*
X0150939Y0181293D01*
X0150880Y0181284D01*
X0150821Y0181271D01*
X0150762Y0181255D01*
X0150705Y0181235D01*
X0150650Y0181212D01*
X0150595Y0181185D01*
X0150543Y0181156D01*
X0150492Y0181123D01*
X0150443Y0181087D01*
X0150397Y0181049D01*
X0150353Y0181007D01*
X0150311Y0180963D01*
X0150273Y0180917D01*
X0150237Y0180868D01*
X0150204Y0180817D01*
X0150175Y0180765D01*
X0150148Y0180710D01*
X0150125Y0180655D01*
X0150105Y0180598D01*
X0150089Y0180539D01*
X0150076Y0180480D01*
X0150067Y0180421D01*
X0150062Y0180360D01*
X0150060Y0180300D01*
X0150060Y0163300D01*
X0150062Y0163240D01*
X0150067Y0163179D01*
X0150076Y0163120D01*
X0150089Y0163061D01*
X0150105Y0163002D01*
X0150125Y0162945D01*
X0150148Y0162890D01*
X0150175Y0162835D01*
X0150204Y0162783D01*
X0150237Y0162732D01*
X0150273Y0162683D01*
X0150311Y0162637D01*
X0150353Y0162593D01*
X0150397Y0162551D01*
X0150443Y0162513D01*
X0150492Y0162477D01*
X0150543Y0162444D01*
X0150595Y0162415D01*
X0150650Y0162388D01*
X0150705Y0162365D01*
X0150762Y0162345D01*
X0150821Y0162329D01*
X0150880Y0162316D01*
X0150939Y0162307D01*
X0151000Y0162302D01*
X0151060Y0162300D01*
X0155060Y0170300D02*
X0155060Y0170800D01*
X0155060Y0172800D02*
X0155060Y0173300D01*
D12*
X0155060Y0172800D02*
X0158060Y0172800D01*
X0158060Y0170800D02*
X0155060Y0170800D01*
X0152060Y0170800D01*
X0152060Y0172800D02*
X0155060Y0172800D01*
D13*
X0148814Y0172593D02*
X0148063Y0171842D01*
X0145061Y0171842D01*
X0144310Y0172593D01*
X0144310Y0174094D01*
X0145061Y0174845D01*
X0146562Y0176446D02*
X0146562Y0179449D01*
X0148814Y0178698D02*
X0146562Y0176446D01*
X0148063Y0174845D02*
X0148814Y0174094D01*
X0148814Y0172593D01*
X0148814Y0178698D02*
X0144310Y0178698D01*
X0161310Y0176446D02*
X0165814Y0176446D01*
X0165814Y0179449D01*
X0163562Y0177947D02*
X0163562Y0176446D01*
X0164313Y0174845D02*
X0161310Y0174845D01*
X0161310Y0172593D01*
X0162061Y0171842D01*
X0164313Y0171842D01*
X0161310Y0170241D02*
X0161310Y0167238D01*
X0161310Y0168739D02*
X0165814Y0168739D01*
X0164313Y0167238D01*
X0162061Y0165687D02*
X0162061Y0164936D01*
X0161310Y0164936D01*
X0161310Y0165687D01*
X0162061Y0165687D01*
X0162061Y0163335D02*
X0161310Y0162584D01*
X0161310Y0161083D01*
X0162061Y0160332D01*
X0165063Y0163335D01*
X0162061Y0163335D01*
X0162061Y0160332D02*
X0165063Y0160332D01*
X0165814Y0161083D01*
X0165814Y0162584D01*
X0165063Y0163335D01*
X0039479Y0161446D02*
X0004046Y0161446D01*
X0004046Y0192154D01*
X0039479Y0192154D01*
X0039479Y0161446D01*
X0025700Y0173847D02*
X0006015Y0171879D01*
X0006015Y0168926D02*
X0023731Y0170894D01*
X0025700Y0173847D02*
X0025700Y0179753D01*
X0006015Y0181721D01*
X0006015Y0184674D02*
X0021763Y0182706D01*
X0021763Y0190580D02*
X0006015Y0188611D01*
X0006015Y0184674D01*
X0006015Y0168926D02*
X0006015Y0164989D01*
X0023731Y0163020D01*
M02*
